<svg xmlns="http://www.w3.org/2000/svg" viewBox="0 0 300 300">
  <title>Gemini_Generated_Image_stk8uxstk8uxstk8</title>
  <path d="M241.38305,98.68306c1.01576,0,1.77465-.02651,2.531.0051,2.01128.08406,2.385.39923,2.43872,2.40328.06581,2.45488.01567,4.91286.01567,7.52536.87884.09174,1.52972.20688,2.18246.2185,1.61607.02876,3.233.00342,4.84955.01194,4.77631.02517,6.4255,1.67164,6.42615,6.43619q.004,29.59525-.00006,59.19051v3.09612a4.32571,4.32571,0,0,0,.85466.58079c2.53061.91373,3.45037,2.828,3.44385,5.37111-.01411,5.52778-.006,11.05566-.00688,16.5835-.00016.92093,0,1.84185,0,2.918.87241.10414,1.51419.235,2.15821.24723,1.78616.03414,3.57322.0224,5.35994.02228a5.54756,5.54756,0,0,1,5.67169,3.89444c3.03406,8.20854,6.07367,16.41518,9.05117,24.64422a9.966,9.966,0,0,1,.5208,3.24458q.077,8.16351.01465,16.32812c-.02225,3.444-1.67559,5.12275-5.1316,5.3211-.76335.0438-1.53109.01312-2.2968.01309q-19.65412-.00052-39.3082-.002c-.92776-.00006-1.85553,0-2.586,0-.323.28981-.51369.37784-.56.51465-1.24819,3.68494-3.79869,5.0635-7.65932,4.85695-4.32675-.23156-8.676-.08967-13.01459-.03572-2.6294.03267-4.83966-.495-6.18579-3.09971a4.105,4.105,0,0,0-3.58409-2.11892c-1.10319-.065-2.21011-.09111-3.31538-.09118q-72.10755-.005-144.2151.0005-1.2759,0-2.5518.03367a4.5839,4.5839,0,0,0-4.22391,2.395,5.45917,5.45917,0,0,1-5.28568,2.87466c-5.01988.00953-10.04278-.10348-15.05849.04077a6.11855,6.11855,0,0,1-6.29513-6.02548c-.14386-6.88561-.07749-13.77626-.03417-20.66435a8.58524,8.58524,0,0,1,.61686-2.71574c2.63388-7.44925,5.24409-14.90787,7.99379-22.3146a18.09315,18.09315,0,0,0,1.18118-6.45375q-.051-37.37667-.034-74.75346-.00155-39.67294.01826-79.34588a36.39952,36.39952,0,0,1,.21007-4.07069A11.75226,11.75226,0,0,1,45.37588,35.455a28.26268,28.26268,0,0,1,4.56714-.3651q81.67934-.02673,163.35866-.02062c3.58628-.00056,6.9215.6903,9.744,3.07918a10.69429,10.69429,0,0,1,4.155,8.39547c.02637,6.03793.05,12.076.03438,18.11388a3.42845,3.42845,0,0,0,1.13973,2.91713c6.9727,6.10008,10.73626,13.90493,12.00327,22.9901C240.73974,93.15832,241.02386,95.76244,241.38305,98.68306Z" style="fill: #a684ff;stroke: #a684ff"/>
  <path d="M206.33,210.68576c.59911,2.502-.7779,4.34639-3.34277,4.70006a20.64906,20.64906,0,0,1-2.80289.08441q-27.3114.008-54.62285.00679c-.99969.00006-1.99938,0-3.16922,0,.674,3.46519,1.28337,6.616,1.9004,9.7654a9.256,9.256,0,0,0,6.39463,7.3136,17.01757,17.01757,0,0,0,5.47084.93382q37.77641.08461,75.55305.0323c.82844-.00009,1.65689,0,2.83891,0-.37573-1.20965-.61538-2.08562-.91832-2.93917-1.84717-5.20492-3.65567-10.42445-5.58051-15.60066a43.9059,43.9059,0,0,1-2.76116-15.6942c.12072-36.56831.06538-73.13719.071-109.70587.00208-13.60695.05129-27.21408-.02045-40.8206a14.19442,14.19442,0,0,0-.98186-5.69574c-1.90994-4.17176-5.37555-6.08107-10.03387-6.0761q-51.9427.05545-103.88552.01833c-20.76011.00042-41.52071.08491-62.27994-.0482A10.92966,10.92966,0,0,0,37.21386,47.72225c-.01988,1.27538-.00966,2.55126-.00966,3.8269q-.00075,76.02762.027,152.05517a20.82291,20.82291,0,0,1-1.24115,7.2232c-2.42871,6.711-4.807,13.44037-7.19716,20.16534-.26425.74347-.47768,1.505-.79319,2.50763,1.34743,0,2.277-.00019,3.20652,0q37.39373.00925,74.78741.01757c.76568.00012,1.53317.01729,2.29674-.02688,4.80607-.2782,9.0568-3.4131,10.041-7.69144.72221-3.13926,1.10336-6.3574,1.61133-9.54443.03209-.20137-.15445-.43755-.28278-.77038-.7726,0-1.52856-.00006-2.28452,0q-27.31141.00216-54.62282-.00149a19.60186,19.60186,0,0,1-3.30684-.15406,3.72557,3.72557,0,0,1-3.08971-4.91642,10.748,10.748,0,0,1,1.50945-2.91519c.86463-1.25889,1.88058-2.41355,2.82477-3.61834,4.72121-6.02436,9.46309-12.03275,14.14834-18.08494a8.69332,8.69332,0,0,1,7.23014-3.62462q9.82533.005,19.65062.02877a12.40657,12.40657,0,0,1,2.03331.09147c.89364.1513,1.05015.7229.55069,1.665-.74633.0345-1.58316.10524-2.42011.10675-6.46617.01162-12.93237.02618-19.39845.00325-2.22706-.00789-4.17953.45562-5.638,2.33947-5.25819,6.79163-10.55832,13.55083-15.82688,20.33445a11.4427,11.4427,0,0,0-.845,1.55353H202.74875c-.66521-.94419-1.113-1.6352-1.61522-2.284-4.685-6.0519-9.493-12.01316-14.01938-18.18106a8.66546,8.66546,0,0,0-7.78843-3.84742c-6.12407.10586-12.25137.034-18.37723.01742-.88592-.00238-1.77151-.109-2.6908-.16964-.12515-1.69518.79912-1.75322,1.77575-1.75339,6.89164-.0013,13.78363-.044,20.67477.014a8.51211,8.51211,0,0,1,7.0125,3.517C193.33852,192.87068,198.46857,199.34525,204.1,206.6" style="fill: #a684ff;stroke: #a684ff"/>
  <path d="M235.16939,235.36888c-1.21883-.05944-2.38695-.16715-3.55495-.16584q-37.14291.04125-74.28582.09045a34.16148,34.16148,0,0,1-5.08358-.33148,11.37681,11.37681,0,0,1-9.83854-9.06352c-.52913-2.39609-.68949-4.87328-1.023-7.31294-.13351-.9764-.28356-1.95053-.42149-2.89422H122.041c-.22955,1.04144-.47175,1.93361-.61722,2.84129-.36314,2.26582-.60647,4.55316-1.03509,6.80581-.8904,4.68-3.62725,7.86094-8.223,9.1308a24.863,24.863,0,0,1-6.53925.803c-18.89043.01071-37.78082-.07417-56.67131-.1118-6.2968-.01255-12.59373.02224-18.89051.05427-.888.00451-1.77547.11677-2.69768.1816,0,6.9417-.03773,13.56964.017,20.1968.02472,2.99081,1.58157,4.54986,4.59435,4.59184,4.93438.06881,9.8705.00923,14.80587.01418a4.59518,4.59518,0,0,0,4.22621-2.33288,6.3587,6.3587,0,0,1,5.61669-2.96038c.51036-.01059,1.0211-.00642,1.53165-.00642q73.138.00009,146.276.00165c.68057,0,1.3661-.033,2.04085.03439a6.32,6.32,0,0,1,5.15289,2.88406,4.78044,4.78044,0,0,0,4.67942,2.41864c4.68-.0267,9.36059.02763,14.0402-.02243,3.48331-.03722,4.9607-1.534,4.97716-4.99716.02829-5.95371.00807-11.90762-.004-17.86146C235.32,236.77155,235.23427,236.1862,235.16939,235.36888Z" style="fill: #a684ff;stroke: #a684ff"/>
  <path d="M227.39252,110.77648v66.9571h30.56153c0-.948.00006-1.7039,0-2.45981q-.00351-29.95191-.00735-59.90379c-.00007-.42483.01573-.85112-.01281-1.27424-.14236-2.10979-1.01156-3.06532-3.1025-3.34747a15.42579,15.42579,0,0,0-2.03581-.07964q-11.34864-.01524-22.6973-.01369C229.26369,110.65534,228.42917,110.7279,227.39252,110.77648Z" style="fill: #a684ff;stroke: #a684ff"/>
  <path d="M237.17073,254.74462c.78488.08856,1.11509.15824,1.44536.15842q21.42481.0116,42.84963-.00193c2.69575-.005,3.5749-.96761,3.594-3.77994.03123-4.5887-.06-9.179.02334-13.76635a19.41209,19.41209,0,0,0-1.30247-7.21345c-2.57318-6.92423-5.1033-13.86444-7.65835-20.7954-1.35682-3.68045-2.02821-4.1717-5.988-4.17376q-20.27708-.01037-40.5542.02564c-.65234.00087-1.30453.11743-2.26766.21.3859,1.57048.61844,2.97954,1.078,4.31029q3.78266,10.954,7.67169,21.87113a18.62482,18.62482,0,0,1,1.1633,6.7236c-.089,4.50239-.04441,9.00745-.05435,13.5114C237.169,252.7407,237.17073,253.65717,237.17073,254.74462Z" style="fill: #a684ff;stroke: #a684ff"/>
  <path d="M261.9749,203.15235a4.23821,4.23821,0,0,0,.25077-.80907c.01122-6.28985.05843-12.5801-.00371-18.86929-.02618-2.65162-1.10156-3.62035-3.821-3.627q-14.66959-.036-29.33936.00039a12.19208,12.19208,0,0,0-1.66842.2258v23.07919Z" style="fill: #a684ff;stroke: #a684ff"/>
  <path d="M131.42685,213.58979v-.00654q34.18853,0,68.37706-.00308a31.277,31.277,0,0,0,3.31276-.08869c1.146-.12257,1.4921-.98468,1.50061-2.02.00841-1.02524-.70732-1.26175-1.5233-1.326-.67712-.0533-1.35934-.056-2.03933-.056q-69.90781.00112-139.81568.00932a16.37,16.37,0,0,0-1.78319.059c-1.07589.1183-1.348.87115-1.3543,1.81634a1.3639,1.3639,0,0,0,1.38144,1.50662c1.01427.08883,2.0374.10478,3.05666.105Q96.9832,213.59365,131.42685,213.58979Z" style="fill: #a684ff;stroke: #a684ff"/>
  <path d="M227.654,69.57634c-.66745,3.01733-.54349,37.23813.07376,39.063h6.20674c0-2.47511-.03191-4.76131.00876-7.04624.04251-2.3865.49749-2.819,2.818-2.91837.81655-.035,1.6319-.09845,2.72895-.16629C238.73675,87.4015,236.15287,77.42435,227.654,69.57634Z" style="fill: #17123c"/>
  <path d="M244.36684,108.67924v-8.09707a32.55913,32.55913,0,0,0-8.53526.1264,67.37048,67.37048,0,0,0,.1163,7.97067Z" style="fill: #a684ff;stroke: #a684ff"/>
  <path d="M204.33333,206.2c-5.199-6.66395-11.44249-13.90827-16.61262-20.59443a8.51211,8.51211,0,0,0-7.0125-3.517c-6.89114-.05806-13.78313-.01533-20.67477-.014-.97663.00017-1.9009.05821-1.77575,1.75339.91929.06062,1.80488.16726,2.6908.16964,6.12586.01657,12.25316.08844,18.37723-.01742a8.66546,8.66546,0,0,1,7.78843,3.84742c4.52638,6.1679,9.33438,12.12916,14.01938,18.18106.50226.64883.95,1.33984,1.61522,2.284H60.17493a11.4427,11.4427,0,0,1,.845-1.55353c5.26856-6.78362,10.56869-13.54282,15.82688-20.33445,1.45848-1.88385,3.411-2.34736,5.638-2.33947,6.46608.02293,12.93228.00837,19.39845-.00325.837-.00151,1.67378-.07225,2.42011-.10675.49946-.94214.343-1.51374-.55069-1.665a12.40657,12.40657,0,0,0-2.03331-.09147q-9.82533-.02185-19.65062-.02877a8.69332,8.69332,0,0,0-7.23014,3.62462c-4.68525,6.05219-11.71587,14.34932-16.43708,20.37368l-.05493-6.90625a9.66676,9.66676,0,0,0,.12129-2.27931q-.0044-21.9405-.01836-43.881-.00411-41.71248.00907-83.425c.00038-1.06077.10552-2.1215.163-3.20259h55.61824c.0765.48457.143.80964.17735,1.13806.42117,4.03068,2.07036,5.57857,6.04855,5.68473.90726.0242,1.8137.07933,2.98183.132a18.592,18.592,0,0,0,.03291,2.97127,6.45643,6.45643,0,0,0,.953,2.81984,77.587,77.587,0,0,0,5.20892,5.93984c1.24616,1.29533,1.95086,1.28926,3.26.04191,1.41294-1.34625,2.63635-2.88924,4.02035-4.2683a7.13938,7.13938,0,0,0,2.42136-6.15342,2.22772,2.22772,0,0,1,.151-.86549c2.31229-.53662,4.481-.70581,6.33734-1.5561,2.268-1.03884,2.31488-3.56165,2.60813-5.86728H204.338c0,1.16386-.00047,2.17044,0,3.177q.01076,22.06743.02041,44.13487-.0008,41.45735-.01125,82.91471Z" style="fill: #17123c"/>
  <path d="M235.16939,235.36888c.06488.81732.15061,1.40267.1518,1.98821.01206,5.95384.03228,11.90775.004,17.86146-.01646,3.46316-1.49385,4.95994-4.97716,4.99716-4.67961.05006-9.36022-.00427-14.0402.02243a4.78044,4.78044,0,0,1-4.67942-2.41864,6.32,6.32,0,0,0-5.15289-2.88406c-.67475-.06735-1.36028-.03436-2.04085-.03439q-73.138-.00225-146.276-.00165c-.51055,0-1.02129-.00417-1.53165.00642a6.3587,6.3587,0,0,0-5.61669,2.96038,4.59518,4.59518,0,0,1-4.22621,2.33288c-4.93537-.005-9.87149.05463-14.80587-.01418-3.01278-.042-4.56963-1.601-4.59435-4.59184-.05477-6.62716-.017-13.2551-.017-20.1968.92221-.06483,1.80967-.17709,2.69768-.1816,6.29678-.032,12.59371-.06682,18.89051-.05427,18.89049.03763,37.78088.12251,56.67131.1118a24.863,24.863,0,0,0,6.53925-.803c4.59578-1.26986,7.33263-4.45084,8.223-9.1308.42862-2.25265.672-4.54,1.03509-6.80581.14547-.90768.38767-1.79985.61722-2.84129H140.962c.13793.94369.288,1.91782.42149,2.89422.33348,2.43966.49384,4.91685,1.023,7.31294A11.37681,11.37681,0,0,0,152.245,234.962a34.16148,34.16148,0,0,0,5.08358.33148q37.14291-.025,74.28582-.09045C232.78244,235.20173,233.95056,235.30944,235.16939,235.36888Z" style="fill: #7f22fe"/>
  <path d="M227.39252,110.77648c1.03665-.04858,1.87117-.12114,2.70576-.12154q11.34866-.00547,22.6973.01369a15.42579,15.42579,0,0,1,2.03581.07964c2.09094.28215,2.96014,1.23768,3.1025,3.34747.02854.42312.01274.84941.01281,1.27424q.00416,29.95189.00735,59.90379c.00006.75591,0,1.51182,0,2.45981H227.39252Zm12.9066,22.801a7.72793,7.72793,0,1,0-.11452-15.45488,7.79289,7.79289,0,0,0-7.75147,7.80524A7.67323,7.67323,0,0,0,240.29912,133.5775Zm2.05273,33.08424c-2.63271,0-5.26644-.042-7.89747.02487-.82009.02086-2.23787-.52077-2.24186.85057-.00383,1.316,1.40079.9094,2.246.91565,5.18022.03828,10.36081.02225,15.54128.01637a4.7323,4.7323,0,0,0,1.50849-.11765,1.23925,1.23925,0,0,0,.75911-.82017c.01178-.26219-.434-.68776-.75668-.78828a5.257,5.257,0,0,0-1.51553-.07692Q246.17352,166.65943,242.35185,166.66174Zm10.10247-3.6378c-.28319-1.85891-1.38649-1.50969-2.2231-1.51377-5.25348-.02563-10.50718-.01408-15.76079-.01367a3.90765,3.90765,0,0,0-1.26087.04124,4.9486,4.9486,0,0,0-1.11209.78022,4.13856,4.13856,0,0,0,.97756.90267,3.214,3.214,0,0,0,1.25454.07707c5.25361.00085,10.50725.00693,15.76076-.016A23.45348,23.45348,0,0,0,252.45432,163.02394Zm-20.64387,9.72793c1.98685.73852,13.92325,1.06144,19.25862.62422a4.99461,4.99461,0,0,0,1.28044-.47707c-.19567-1.49422-1.22546-1.141-1.97133-1.14566-4.90909-.03058-9.81844-.01925-14.72772-.01891a15.68459,15.68459,0,0,0-2.53252.05839C232.70568,171.86087,232.35983,172.33075,231.81045,172.75187Z" style="fill: #17123c"/>
  <path d="M237.17073,254.74462c0-1.08745-.00174-2.00392.00028-2.92035.00994-4.504-.03468-9.009.05435-13.5114a18.62482,18.62482,0,0,0-1.1633-6.7236q-3.89376-10.915-7.67169-21.87113c-.45956-1.33075-.6921-2.73981-1.078-4.31029.96313-.09257,1.61532-.20913,2.26766-.21q20.27709-.02752,40.5542-.02564c3.95983.00206,4.63122.49331,5.988,4.17376,2.555,6.931,5.08517,13.87117,7.65835,20.7954a19.41209,19.41209,0,0,1,1.30247,7.21345c-.08336,4.58739.00789,9.17765-.02334,13.76635-.01913,2.81233-.89828,3.775-3.594,3.77994q-21.42472.03972-42.84963.00193C238.28582,254.90286,237.95561,254.83318,237.17073,254.74462Zm21.63673-26.02406v.02779c5.26719,0,10.53448.0199,15.80152-.00869,2.51-.01361,2.88644-.553,2.05509-2.909-1.49627-4.24036-3.03643-8.46527-4.55985-12.69606-.97288-2.702-.97413-2.71521-3.74916-2.71811q-15.1644-.01569-30.32883-.01308a14.90512,14.90512,0,0,0-1.78046.05881,1.3298,1.3298,0,0,0-1.26557,1.78765,14.88921,14.88921,0,0,0,.60232,1.94355q2.17613,6.11459,4.37119,12.22238c.80566,2.23566.86868,2.29152,3.30708,2.29955C248.443,228.73243,253.62521,228.72056,258.80746,228.72056Zm21.79491,6.171.0598-.92747a7.248,7.248,0,0,0-1.72243-.43481q-17.5933-.03831-35.18666-.00181a9.6137,9.6137,0,0,0-1.895.41351c.60011,1.46809,1.60279,1.31795,2.48528,1.31938q16.9559.0277,33.91174.0096A14.63991,14.63991,0,0,0,280.60237,234.89155Z" style="fill: #7f22fe"/>
  <path d="M261.9749,203.15235H227.39321V180.07316a12.19208,12.19208,0,0,1,1.66842-.2258q14.6697-.02088,29.33936-.00039c2.71941.00667,3.79479.9754,3.821,3.627.06214,6.28919.01493,12.57944.00371,18.86929A4.23821,4.23821,0,0,1,261.9749,203.15235Z" style="fill: #17123c"/>
  <path d="M131.42685,213.58979q-34.44363,0-68.88727-.00405c-1.01926-.00025-2.04239-.0162-3.05666-.105a1.3639,1.3639,0,0,1-1.38144-1.50662c.0063-.94519.27841-1.698,1.3543-1.81634a16.37,16.37,0,0,1,1.78319-.059q69.90783-.00819,139.81568-.00932c.68,0,1.36221.00271,2.03933.056.816.0642,1.53171.30071,1.5233,1.326-.00851,1.03537-.35458,1.89748-1.50061,2.02a31.277,31.277,0,0,1-3.31276.08869q-34.18852.00612-68.37706.00308Z" style="fill: #17123c"/>
  <path d="M227.654,69.57634c8.49892,7.848,11.0828,17.82516,11.83621,28.93205-1.097.06784-1.9124.13131-2.72895.16629-2.32051.09939-2.77549.53187-2.818,2.91837-.04067,2.28493-.00876,4.57113-.00876,7.04624h-6.20674C227.11046,106.81447,226.9865,72.59367,227.654,69.57634Z" style="fill: none"/>
  <path d="M244.36684,108.67924h-8.419a67.37048,67.37048,0,0,1-.1163-7.97067,32.55913,32.55913,0,0,1,8.53526-.1264Z" style="fill: #17123c"/>
  <path d="M204.34715,196.71778q.00234-41.45734.01125-82.91471.00042-22.06743-.02041-44.13487c-.0005-1.00658,0-2.01316,0-3.177H148.44053c-.29325,2.30563-.34015,4.82844-2.60813,5.86728-1.85639.85029-4.025,1.01948-6.33734,1.5561a2.22772,2.22772,0,0,0-.151.86549,7.13938,7.13938,0,0,1-2.42136,6.15342c-1.384,1.37906-2.60741,2.922-4.02035,4.2683-1.30914,1.24735-2.01384,1.25342-3.26-.04191A77.587,77.587,0,0,1,124.43345,79.22a6.45643,6.45643,0,0,1-.953-2.81984,18.592,18.592,0,0,1-.03291-2.97127c-1.16813-.05269-2.07457-.10782-2.98183-.132-3.97819-.10616-5.62738-1.654-6.04855-5.68473-.03431-.32842-.10085-.65349-.17735-1.13806H58.62157c-.05744,1.08109-.16258,2.14182-.163,3.20259q-.015,41.71248-.00907,83.425.0022,21.9405.01836,43.881a9.66676,9.66676,0,0,1-.12129,2.27931c-.08984.36581-.64891.61644-.99582.91914-.25457-.29809-.652-.56267-.73162-.90179a7.88376,7.88376,0,0,1-.07638-1.77572q-.01033-67.8625.00878-135.725a19.93633,19.93633,0,0,1,.6046-5.03248,11.88876,11.88876,0,0,1,10.55418-9.00239,43.24122,43.24122,0,0,1,4.5873-.17744q19.39815-.02568,38.79625-.02008c1.0076-.00032,2.01521,0,2.865,0,.202-.31967.27492-.38663.28892-.46417.91476-5.08356,2.25962-6.21173,7.5078-6.22384q9.95426-.023,19.9085.00121a9.69681,9.69681,0,0,1,3.02325.332,4.85,4.85,0,0,1,3.3714,3.82593c.16149.81517.26452,1.64193.42485,2.65806,1.038,0,1.9579-.00021,2.87772,0q20.29147.00524,40.58293.01966a21.6376,21.6376,0,0,1,3.8128.2228c6.00917,1.08968,9.83559,5.35033,10.43109,11.54987.10539,1.09726.08834,2.20852.08837,3.31332q.00128,67.22469-.00779,134.4494a10.80446,10.80446,0,0,1-.07582,2.03223l.13706,11.4231c.59911,2.502-.7779,4.34639-3.34277,4.70006a20.64906,20.64906,0,0,1-2.80289.08441q-27.3114.008-54.62285.00679c-.99969.00006-1.99938,0-3.16922,0,.674,3.46519,1.28337,6.616,1.9004,9.7654a9.256,9.256,0,0,0,6.39463,7.3136,17.01757,17.01757,0,0,0,5.47084.93382q37.77641.08461,75.55305.0323c.82844-.00009,1.65689,0,2.83891,0-.37573-1.20965-.61538-2.08562-.91832-2.93917-1.84717-5.20492-3.65567-10.42445-5.58051-15.60066a43.9059,43.9059,0,0,1-2.76116-15.6942c.12072-36.56831.06538-73.13719.071-109.70587.00208-13.60695.05129-27.21408-.02045-40.8206a14.19442,14.19442,0,0,0-.98186-5.69574c-1.90994-4.17176-5.37555-6.08107-10.03387-6.0761q-51.9427.05545-103.88552.01833c-20.76011.00042-41.52071.08491-62.27994-.0482A10.92966,10.92966,0,0,0,37.21386,47.72225c-.01988,1.27538-.00966,2.55126-.00966,3.8269q-.00075,76.02762.027,152.05517a20.82291,20.82291,0,0,1-1.24115,7.2232c-2.42871,6.711-4.807,13.44037-7.19716,20.16534-.26425.74347-.47768,1.505-.79319,2.50763,1.34743,0,2.277-.00019,3.20652,0q37.39373.00925,74.78741.01757c.76568.00012,1.53317.01729,2.29674-.02688,4.80607-.2782,9.0568-3.4131,10.041-7.69144.72221-3.13926,1.10336-6.3574,1.61133-9.54443.03209-.20137-.15445-.43755-.28278-.77038-.7726,0-1.52856-.00006-2.28452,0q-27.31141.00216-54.62282-.00149a19.60186,19.60186,0,0,1-3.30684-.15406c-2.4452-.42186-3.23516-2.30906-3.34577-4.86274l.2-11.33334c-.133-.56685-.13324-4.60558-.13333-5.2-.00689-45.24167.35823-86.91307.3849-132.15473a19.93633,19.93633,0,0,1,.6046-5.03248,11.88876,11.88876,0,0,1,10.55418-9.00239,43.24122,43.24122,0,0,1,4.5873-.17744q19.39815-.02568,38.79625-.02008c1.0076-.00032,2.01521,0,2.865,0,.202-.31967.27492-.38663.28892-.46417.91476-5.08356,2.25962-6.21173,7.5078-6.22384q9.95426-.023,19.9085.00121a9.69681,9.69681,0,0,1,3.02325.332,4.85,4.85,0,0,1,3.3714,3.82593c.16149.81517.26452,1.64193.42485,2.65806,1.038,0,1.9579-.00021,2.87772,0q20.29147.00524,40.58293.01966a21.6376,21.6376,0,0,1,3.8128.2228c6.00917,1.08968,9.83559,5.35033,10.43109,11.54987.10539,1.09726.08834,2.20852.08837,3.31332q.00128,67.22469-.00779,134.4494" style="fill: #7f22fe"/>
  <path d="M146.11088,66.595c-.97669,0-1.807-.00109-2.63735.0002q-4.46079.00691-8.92153.01287a10.14945,10.14945,0,0,1-1.77653-.07158c-.27118-.04853-.705-.40284-.68868-.58491a1.33018,1.33018,0,0,1,.52994-.99619,4.78849,4.78849,0,0,1,1.73389-.25024c2.71872-.02551,5.43778-.01674,8.15672-.01939,1.16442-.00113,2.32884-.00018,3.74222-.00018,0-6.48609.08738-12.668-.04778-18.84509-.04687-2.14077-1.48558-3.17515-3.84081-3.18512q-10.96053-.04635-21.92138.00664c-2.809.01571-4.05889,1.25713-4.07619,4.06011q-.06366,10.31838-.00162,20.63742c.014,2.79233,1.09427,3.92346,3.81355,3.94511q11.08767.08831,22.17613.05685C145.34847,71.35163,146.28427,70.2025,146.11088,66.595Z" style="fill: #a684ff"/>
  <path d="M58.81612,58.591h55.48763V49.47592c-.9391,0-1.76521-.00023-2.59132,0q-20.65347.00681-41.30692.025a20.31178,20.31178,0,0,0-3.55231.26779A9.741,9.741,0,0,0,58.81612,58.591Z" style="fill: #a684ff"/>
  <path d="M204.12555,58.63215c-1.28851-6.02776-5.03-9.02264-10.94976-9.02341q-20.9226-.00273-41.84515.01984c-.92349.0005-1.847.00006-2.71566.00006a22.39608,22.39608,0,0,0,.06158,9.00351Z" style="fill: #a684ff"/>
  <path d="M204.15917,60.95424c-2.51456-.54332-53.82831-.47063-55.76006.07178v3.259h55.76006Z" style="fill: #a684ff"/>
  <path d="M58.59988,64.27179h55.65563c.06355-.74107.153-1.32262.151-1.90385a14.7482,14.7482,0,0,0-.18695-1.6169H58.59988Z" style="fill: #a684ff"/>
  <path d="M125.12005,73.51764c.172,1.54842-.09761,3.12828.54548,4.1119a45.32071,45.32071,0,0,0,5.67976,6.461c1.627-1.75146,2.93119-3.32509,4.41366-4.70773,1.78426-1.66407,1.95809-3.57246,1.37954-5.86518Z" style="fill: #a684ff"/>
  <path d="M137.76578,187.00074v8.93332H125.09536v-9.061c-1.59927-.41151-2.96029-.81125-4.34326-1.1093a29.243,29.243,0,0,1-17.837-10.98222c-3.52735-4.64258-4.98931-9.9663-5.30521-15.6836-.00823-.14909.11867-.30563.18274-.4586,1.87095-.68362,14.11275-.79884,16.7362-.12113,1.045,5.92353,3.62451,10.76,10.17314,12.89268V147.15879c-2.53595-.85407-5.14494-1.59182-7.63763-2.61312a40.999,40.999,0,0,1-6.82072-3.38678c-7.93879-5.157-10.932-12.635-9.97687-21.911,1.25111-12.1509,10.452-19.18773,19.33319-21.55363,1.6348-.43549,3.3045-.74,5.30316-1.18117V88.34439h12.79753v8.27847c8.6659,1.08646,15.79644,4.44558,20.79525,11.48827a23.54519,23.54519,0,0,1,4.36717,14.0519c-1.8779.77494-12.99268.99756-16.80411.34633-.55592-3.45872-1.72841-6.78761-4.69086-9.12791a5.53531,5.53531,0,0,0-3.49188-1.5948V133.4579c3.17287,1.018,6.28222,1.86927,9.27577,3.02112a41.43053,41.43053,0,0,1,7.33768,3.50214,21.44727,21.44727,0,0,1,10.378,18.02141c.62305,13.68413-7.04391,23.95628-20.33182,27.38278C142.33379,185.95318,140.1116,186.44317,137.76578,187.00074Zm-1.86946,7.10368c0-2.27155-.01009-4.30066.00256-6.32962.01567-2.5142.02917-2.47927,2.46131-2.85216a38.54091,38.54091,0,0,0,11.17937-3.38559c12.05139-5.897,15.442-17.86455,12.48191-28.75284-1.52445-5.6074-5.262-9.62766-10.42214-12.29387a72.29109,72.29109,0,0,0-13.61784-4.987c-2.098-.59558-2.10714-.66565-2.11116-2.81451q-.01968-10.461.00767-20.92209c.00174-.72835.134-1.45641.21375-2.26557a7.67465,7.67465,0,0,1,5.22135,1.46275c3.70946,2.25329,5.60737,5.781,6.51285,9.89082h12.97192a11.06669,11.06669,0,0,0-.00763-1.40721,22.50482,22.50482,0,0,0-6.40865-13.30669A26.11572,26.11572,0,0,0,140.759,99.11433c-1.56175-.30642-3.1269-.59571-4.952-.94254V90.20542H126.68v8.04872c-.94191.17287-1.59136.31311-2.24725.409a30.17462,30.17462,0,0,0-10.81863,3.60783,22.61546,22.61546,0,0,0-11.47963,22.98456c.975,7.58191,5.38346,12.75347,12.06027,15.96831a76.96582,76.96582,0,0,0,10.06023,3.57234c2.37253.75757,2.43084.65575,2.43115,3.07731q.00144,11.7368-.03715,23.47357c-.00212.73787-.09661,1.47548-.148,2.2102a12.72431,12.72431,0,0,1-6.58506-2.21234c-4.02748-2.729-6.02935-6.77538-7.03362-11.249H99.593a24.70257,24.70257,0,0,0,5.26224,14.00565c4.0934,5.15511,9.48737,8.14759,15.74362,9.76942,1.9493.50536,3.92624.9043,6.11415,1.40292v8.83048Z" style="fill: #00d492"/>
  <path d="M240.29912,133.5775a7.67323,7.67323,0,0,1-7.866-7.64964,7.79289,7.79289,0,0,1,7.75147-7.80524,7.72793,7.72793,0,1,1,.11452,15.45488Zm-.03855-13.60255a6.05337,6.05337,0,0,0-5.91944,6.05974,5.90038,5.90038,0,1,0,11.79523-.31478A5.83854,5.83854,0,0,0,240.26057,119.975Z" style="fill: #a684ff"/>
  <path d="M242.35185,166.66294q3.82164.0018,7.64331.00324a5.257,5.257,0,0,1,1.51553.07692c.3227.10052.76846.52609.75668.78828a1.23925,1.23925,0,0,1-.75911.82017,4.7323,4.7323,0,0,1-1.50849.11765c-5.18047.00588-10.36106.02191-15.54128-.01637-.84518-.00625-2.2498.40031-2.246-.91565.004-1.37134,1.42177-.82971,2.24186-.85057C237.08541,166.61972,239.71914,166.66174,242.35185,166.66294Z" style="fill: #a684ff"/>
  <path d="M252.45432,163.02394a23.45348,23.45348,0,0,1-2.364.25775c-5.25351.02294-10.50715.01686-15.76076.016a3.214,3.214,0,0,1-1.25454-.07707,4.1384,4.1384,0,0,1-.97756-.90268,4.94887,4.94887,0,0,1,1.11209-.78021,3.90765,3.90765,0,0,1,1.26087-.04124c5.25361-.00041,10.50731-.012,15.76079.01367C251.06783,161.51425,252.17113,161.165,252.45432,163.02394Z" style="fill: #a684ff"/>
  <path d="M231.81045,172.75187c.54938-.42112.89523-.891,1.30749-.959a15.68459,15.68459,0,0,1,2.53252-.05839c4.90928-.00034,9.81863-.01167,14.72772.01891.74587.00464,1.77566-.34856,1.97133,1.14566a4.99461,4.99461,0,0,1-1.28044.47707C245.7337,173.81331,233.7973,173.49039,231.81045,172.75187Z" style="fill: #a684ff"/>
  <path d="M258.80746,228.72056c-5.18225,0-10.36449.01187-15.54667-.00523-2.4384-.008-2.50142-.06389-3.30708-2.29955q-2.20042-6.1059-4.37119-12.22238a14.88921,14.88921,0,0,1-.60232-1.94355,1.3298,1.3298,0,0,1,1.26557-1.78765,14.90512,14.90512,0,0,1,1.78046-.05881q15.1644.00179,30.32883.01308c2.775.0029,2.77628.01614,3.74916,2.71811,1.52342,4.23079,3.06358,8.4557,4.55985,12.69606.83135,2.356.45489,2.89541-2.05509,2.909-5.267.02859-10.53433.00869-15.80152.00869ZM269.899,212.54131c-4.93119-.52788-30.8194-.33862-32.80207.26119q2.48823,6.92991,4.96749,13.83475h32.87341Z" style="fill: #a684ff"/>
  <path d="M280.60237,234.89155a14.63991,14.63991,0,0,1-2.34725.3784q-16.95586.02813-33.91174-.0096c-.88249-.00143-1.88517.14871-2.48528-1.31938a9.6137,9.6137,0,0,1,1.895-.41351q17.59332-.03433,35.18666.00181a7.248,7.248,0,0,1,1.72243.43481Z" style="fill: #a684ff"/>
  <path d="M146.11088,66.595c.17339,3.6075-.76241,4.75663-3.75942,4.7665q-11.08791.03649-22.17613-.05685c-2.71928-.02165-3.79959-1.15278-3.81355-3.94511q-.05155-10.31853.00162-20.63742c.0173-2.803,1.26719-4.0444,4.07619-4.06011Q131.4,42.60077,142.361,42.65537c2.35523.01,3.79394,1.04435,3.84081,3.18512.13516,6.17707.04778,12.359.04778,18.84509-1.41338,0-2.5778-.001-3.74222.00018-2.71894.00265-5.438-.00612-8.15672.01939a4.78849,4.78849,0,0,0-1.73389.25024,1.33018,1.33018,0,0,0-.52994.99619c-.0163.18207.4175.53638.68868.58491a10.14945,10.14945,0,0,0,1.77653.07158q4.46077-.00024,8.92153-.01287C144.30384,66.59391,145.13419,66.595,146.11088,66.595ZM123.85936,48.068c-.92019-.78353-1.42865-1.52107-2.09224-1.70771-.91826-.25829-1.5888.39792-1.78167,1.3504-.1895.93594.65209,2.0342,1.56375,1.83561A9.08784,9.08784,0,0,0,123.85936,48.068Z" style="fill: #17123c"/>
  <path d="M58.81612,58.591a9.741,9.741,0,0,1,8.03708-8.8223,20.31178,20.31178,0,0,1,3.55231-.26779q20.65342-.03329,41.30692-.025c.82611-.00027,1.65222,0,2.59132,0V58.591Z" style="fill: #17123c"/>
  <path d="M204.12555,58.63215h-55.449a22.39608,22.39608,0,0,1-.06158-9.00351c.86864,0,1.79217.00044,2.71566-.00006q20.92259-.01134,41.84515-.01984C199.09554,49.60951,202.837,52.60439,204.12555,58.63215Z" style="fill: #17123c"/>
  <path d="M204.15917,60.95424v3.33082H148.39911V61.026C150.33086,60.48361,201.64461,60.41092,204.15917,60.95424Z" style="fill: #17123c"/>
  <path d="M58.59988,64.27179V60.751h55.61973a14.7482,14.7482,0,0,1,.18695,1.6169c.002.58123-.0875,1.16278-.151,1.90385Z" style="fill: #17123c"/>
  <path d="M125.12005,73.51764h12.01844c.57855,2.29272.40472,4.20111-1.37954,5.86518-1.48247,1.38264-2.78668,2.95627-4.41366,4.70773a45.32071,45.32071,0,0,1-5.67976-6.461C125.02244,76.64592,125.2921,75.06606,125.12005,73.51764Z" style="fill: #17123c"/>
  <path d="M135.89632,194.20442H126.713v-8.83048c-2.18791-.49862-4.16485-.89756-6.11415-1.40292-6.25625-1.62183-11.65022-4.61431-15.74362-9.76942A24.70257,24.70257,0,0,1,99.593,160.196h13.28926c1.00427,4.47357,3.00614,8.52,7.03362,11.24895a12.72431,12.72431,0,0,0,6.58506,2.21234c.05142-.73472.14591-1.47233.148-2.2102q.03362-11.73675.03715-23.47357c-.00031-2.42156-.05862-2.31974-2.43115-3.07731a76.96582,76.96582,0,0,1-10.06023-3.57234c-6.67681-3.21484-11.0853-8.3864-12.06027-15.96831a22.61546,22.61546,0,0,1,11.47963-22.98456,30.17462,30.17462,0,0,1,10.81863-3.60783c.65589-.09587,1.30534-.23611,2.24725-.409V90.30542h9.127v7.96637c1.82508.34683,3.39023.63612,4.952.94254a26.11572,26.11572,0,0,1,13.62257,7.02647,22.50482,22.50482,0,0,1,6.40865,13.30669,11.06669,11.06669,0,0,1,.00763,1.40721H147.826c-.90548-4.10978-2.80339-7.63753-6.51285-9.89082a7.67465,7.67465,0,0,0-5.22135-1.46275c-.07972.80916-.212,1.53722-.21375,2.26557q-.02538,10.461-.00767,20.92209c.004,2.14886.01318,2.21893,2.11116,2.81451a72.29109,72.29109,0,0,1,13.61784,4.987c5.16018,2.66621,8.89769,6.68647,10.42214,12.29387,2.96008,10.88829-.43052,22.85586-12.48191,28.75284a38.54091,38.54091,0,0,1-11.17937,3.38559c-2.43214.37289-2.44564.338-2.46131,2.85216C135.88623,189.90376,135.89632,191.93287,135.89632,194.20442Zm.27776-45.78371a11.65553,11.65553,0,0,0-.24547,1.63092q.00113,11.21819.0535,22.43629a6.78709,6.78709,0,0,0,.392,1.58885c8.11272-.84327,13.04375-6.141,12.81277-13.57052C148.98969,154.16264,143.15812,148.63793,136.17408,148.42071Zm-9.65337-38.79553c-5.95051.00931-11.03855,5.625-10.889,11.70856.14556,5.92353,5.34232,11.23751,10.889,10.94369Z" style="fill: #00d492"/>
  <path d="M240.26057,119.975a5.83854,5.83854,0,0,1,5.87579,5.745,5.90038,5.90038,0,1,1-11.79523.31478A6.05337,6.05337,0,0,1,240.26057,119.975Z" style="fill: #17123c"/>
  <path d="M269.899,212.54131l5.03883,14.09594H242.0644q-2.48047-6.90819-4.96749-13.83475C239.07958,212.20269,264.96779,212.01343,269.899,212.54131Z" style="fill: #17123c"/>
  <path d="M123.85936,48.068a9.08784,9.08784,0,0,1-2.31016,1.4783c-.91166.19859-1.75325-.89967-1.56375-1.83561.19287-.95248.86341-1.60869,1.78167-1.3504C122.43071,46.54694,122.93917,47.28448,123.85936,48.068Z" style="fill: #a684ff"/>
  <path d="M136.17408,148.42071c6.984.21722,12.81561,5.74193,13.01284,12.08554.231,7.42953-4.7,12.72725-12.81277,13.57052a6.78709,6.78709,0,0,1-.392-1.58885q-.06244-11.218-.0535-22.43629A11.65553,11.65553,0,0,1,136.17408,148.42071Zm1.90533,2.45707c-.50541,2.60106-.4079,18.988.124,20.83662,5.41419-.73754,9.069-5.07887,9.06933-10.77285A10.20692,10.20692,0,0,0,138.07941,150.87778Z" style="fill: #00d492"/>
  <path d="M126.52071,109.62518v22.65225c-5.5467.29382-10.74346-5.02016-10.889-10.94369C115.48216,115.25016,120.5702,109.63449,126.52071,109.62518Zm-1.756,2.21334c-4.90657,1.647-7.87376,5.94081-7.30047,10.1392.57225,4.19052,3.80348,7.64813,7.30047,7.79724Z" style="fill: #00d492"/>
  <path d="M138.07941,150.87778a10.20692,10.20692,0,0,1,9.19333,10.06377c-.00031,5.694-3.65514,10.03531-9.06933,10.77285C137.67151,169.86575,137.574,153.47884,138.07941,150.87778Z" style="fill: #17123c"/>
  <path d="M124.76472,111.83852V129.775c-3.497-.14911-6.72822-3.60672-7.30047-7.79724C116.891,117.77933,119.85815,113.48552,124.76472,111.83852Z" style="fill: #17123c"/>
</svg>
